# Rhino
mtllib toyplane.mtl
g PlaneRigCenter_mesh
usemtl material1
v 13 7 -0.7643746137619019
v 12.99998188018799 5.251267433166504 -0.7644370198249817
v 12.99996376037598 3.502535343170166 -0.7644994854927063
v 13.34919357299805 7 -0.6798946261405945
v 13.34915447235107 5.250174522399902 -0.6801024675369263
v 13.3491153717041 3.500348806381226 -0.6803103685379028
v 13.62125873565674 7 -0.44568732380867
v 13.62137985229492 5.248691082000732 -0.4456706345081329
v 13.62150096893311 3.497382640838623 -0.4456539452075958
v 13.75899410247803 7 -0.09392692148685455
v 13.75911808013916 5.247707843780518 -0.09407496452331543
v 13.75924110412598 3.495416164398193 -0.0942230150103569
v 13.71868228912354 7 0.2598970234394074
v 13.71883773803711 5.248018264770508 0.2598572075366974
v 13.71899223327637 3.496036052703857 0.2598174214363098
v 13.49851799011231 7 0.5801186561584473
v 13.49870300292969 5.249429702758789 0.5801774859428406
v 13.49888801574707 3.498859643936157 0.5802363753318787
v 13.19524574279785 7 0.7390271425247192
v 13.19529724121094 5.250771045684815 0.7391777038574219
v 13.19534873962402 3.501541614532471 0.7393282055854797
v 12.81613445281982 7 0.7419731020927429
v 12.81610298156738 5.251461029052734 0.7421383261680603
v 12.81607151031494 3.50292181968689 0.7423035502433777
v 12.50400733947754 7 0.5821385979652405
v 12.50371551513672 5.251243591308594 0.5821919441223145
v 12.5034236907959 3.502487182617188 0.5822452902793884
v 12.28858089447022 7 0.279256671667099
v 12.2885217666626 5.250692367553711 0.2793841660022736
v 12.28846263885498 3.501384258270264 0.2795116603374481
v 12.23967742919922 7 -0.08189941197633743
v 12.23942279815674 5.250506401062012 -0.081893689930439
v 12.23916816711426 3.501013278961182 -0.08188797533512116
v 12.371994972229 7 -0.4360240697860718
v 12.37209987640381 5.250947952270508 -0.4364308714866638
v 12.37220478057861 3.501896142959595 -0.4368376731872559
v 12.64563179016113 7 -0.677239716053009
v 12.64575386047363 5.251423358917236 -0.6774475574493408
v 12.64587593078613 3.502846240997315 -0.6776553392410278
v 13 7 -0.7643746137619019
v 12.99998188018799 5.251267433166504 -0.7644370198249817
v 12.99996376037598 3.502535343170166 -0.7644994854927063
vt 0 0
vt 0 0.5
vt 0 1
vt 0.07551013678312302 0
vt 0.07551013678312302 0.5
vt 0.07551013678312302 1
vt 0.151020273566246 0
vt 0.151020273566246 0.5
vt 0.151020273566246 1
vt 0.2304496020078659 0
vt 0.2304496020078659 0.5
vt 0.2304496020078659 1
vt 0.3052215874195099 0
vt 0.3052215874195099 0.5
vt 0.3052215874195099 1
vt 0.3870125114917755 0
vt 0.3870125114917755 0.5
vt 0.3870125114917755 1
vt 0.4589363634586334 0
vt 0.4589363634586334 0.5
vt 0.4589363634586334 1
vt 0.5387499928474426 0
vt 0.5387499928474426 0.5
vt 0.5387499928474426 1
vt 0.6123195886611939 0
vt 0.6123195886611939 0.5
vt 0.6123195886611939 1
vt 0.6904875040054321 0
vt 0.6904875040054321 0.5
vt 0.6904875040054321 1
vt 0.7671874761581421 0
vt 0.7671874761581421 0.5
vt 0.7671874761581421 1
vt 0.8466660976409912 0
vt 0.8466660976409912 0.5
vt 0.8466660976409912 1
vt 0.9233330488204956 0
vt 0.9233330488204956 0.5
vt 0.9233330488204956 1
vt 1 0
vt 1 0.5
vt 1 1
vn -0.0003382124123163521 3.569508771761321e-005 -0.9999999403953552
vn 1.793477508726937e-006 3.569158798200078e-005 -1
vn 0.0003417269908823073 3.568808824638836e-005 -0.9999999403953552
vn 0.4575850665569305 9.55120412982069e-005 -0.8891658186912537
vn 0.4576042294502258 9.551044786348939e-005 -0.8891559839248657
vn 0.4576234519481659 9.550884715281427e-005 -0.889146089553833
vn 0.8141524791717529 5.079317270428874e-005 -0.5806511640548706
vn 0.8138953447341919 5.077195601188578e-005 -0.5810114741325378
vn 0.8136386275291443 5.075077206129208e-005 -0.5813709497451782
vn 0.9919582605361939 8.041106775635853e-005 -0.1265654712915421
vn 0.9919363260269165 8.042403351282701e-005 -0.1267371475696564
vn 0.9919143319129944 8.043701382121071e-005 -0.1269090473651886
vn 0.9399409294128418 7.522571104345843e-005 0.3413371741771698
vn 0.9399034380912781 7.522005762439221e-005 0.3414403796195984
vn 0.9398660063743591 7.521441875724122e-005 0.3415433466434479
vn 0.6495328545570374 9.423831943422556e-005 0.7603335380554199
vn 0.6494585871696472 9.423260053154081e-005 0.7603969573974609
vn 0.6493842005729675 9.422687435289845e-005 0.7604604959487915
vn 0.2583731114864349 9.078397124540061e-005 0.9660452008247376
vn 0.2588870525360107 9.078734001377598e-005 0.9659075736999512
vn 0.2594002485275269 9.079067967832089e-005 0.96576988697052
vn -0.2434194535017014 9.600718476576731e-005 0.9699211120605469
vn -0.2441955059766769 9.600263729225844e-005 0.969726026058197
vn -0.2449688762426376 9.599804616300389e-005 0.9695309400558472
vn -0.6469454169273377 0.0001311511150561273 0.7625362873077393
vn -0.6465901136398315 0.0001311010419158265 0.7628375887870789
vn -0.6462330222129822 0.0001310507068410516 0.7631401419639587
vn -0.9307218194007874 5.798356505692937e-005 0.3657279014587402
vn -0.9305692911148071 5.800670624012128e-005 0.3661158382892609
vn -0.9304172992706299 5.802972737001255e-005 0.3665018975734711
vn -0.9939610958099365 0.0001442578650312498 -0.1097331270575523
vn -0.9938735365867615 0.0001442425564164296 -0.1105231195688248
vn -0.9937853813171387 0.0001442271313862875 -0.1113133057951927
vn -0.8227866291999817 8.292102575069293e-005 -0.5683503746986389
vn -0.8226691484451294 8.296761370729655e-005 -0.5685204267501831
vn -0.8225517868995667 8.301412890432403e-005 -0.5686901807785034
vn -0.4640948176383972 7.289033965207636e-005 -0.8857855200767517
vn -0.4643718004226685 7.285375613719225e-005 -0.8856403231620789
vn -0.4646486639976502 7.281717989826575e-005 -0.885495126247406
vn -0.0003382124123163521 3.569508771761321e-005 -0.9999999403953552
vn 1.793477508726937e-006 3.569158798200078e-005 -1
vn 0.0003417269908823073 3.568808824638836e-005 -0.9999999403953552
f 5/5/5 2/2/2 1/1/1 4/4/4
f 6/6/6 3/3/3 2/2/2 5/5/5
f 8/8/8 5/5/5 4/4/4 7/7/7
f 9/9/9 6/6/6 5/5/5 8/8/8
f 11/11/11 8/8/8 7/7/7 10/10/10
f 12/12/12 9/9/9 8/8/8 11/11/11
f 14/14/14 11/11/11 10/10/10 13/13/13
f 15/15/15 12/12/12 11/11/11 14/14/14
f 17/17/17 14/14/14 13/13/13 16/16/16
f 18/18/18 15/15/15 14/14/14 17/17/17
f 20/20/20 17/17/17 16/16/16 19/19/19
f 21/21/21 18/18/18 17/17/17 20/20/20
f 23/23/23 20/20/20 19/19/19 22/22/22
f 24/24/24 21/21/21 20/20/20 23/23/23
f 26/26/26 23/23/23 22/22/22 25/25/25
f 27/27/27 24/24/24 23/23/23 26/26/26
f 29/29/29 26/26/26 25/25/25 28/28/28
f 30/30/30 27/27/27 26/26/26 29/29/29
f 32/32/32 29/29/29 28/28/28 31/31/31
f 33/33/33 30/30/30 29/29/29 32/32/32
f 35/35/35 32/32/32 31/31/31 34/34/34
f 36/36/36 33/33/33 32/32/32 35/35/35
f 38/38/38 35/35/35 34/34/34 37/37/37
f 39/39/39 36/36/36 35/35/35 38/38/38
f 41/41/41 38/38/38 37/37/37 40/40/40
f 42/42/42 39/39/39 38/38/38 41/41/41

